<svg xmlns="http://www.w3.org/2000/svg" width="38" height="50"><path d="M19 44.14c-.4 0-.73.33-.73.73s.33.73.73.73c.4 0 .73-.33.73-.73s-.33-.73-.73-.73zm0-4.39c-.4 0-.73.33-.73.73s.33.73.73.73c.4 0 .73-.33.73-.73s-.33-.73-.73-.73zm0 8.79c-.4 0-.73.33-.73.73s.33.73.73.73c.4 0 .73-.33.73-.73s-.33-.73-.73-.73zm.1-12.36l-4.64-4.64c.69-.6 1-1.51.93-2.43a11.18 11.18 0 007.22.01c-.12.93.31 1.95 1.04 2.51l-4.55 4.55zm11.02-21.04h.04c.79 0 1.44.64 1.44 1.44v.01c0 .8-.67 1.46-1.48 1.44v-2.89zM6.4 16.58c0-.8.67-1.46 1.48-1.44v2.88a1.44 1.44 0 01-1.48-1.44zm7.52 12.92c0 .52-.33.99-.83 1.16l-3.36 1.13a5.51 5.51 0 01-3.33-5.04v-7.64c.46.27.97.39 1.53.38a11.25 11.25 0 005.99 8.97v1.04zm5.05-1.25a9.73 9.73 0 01-9.62-9.76v-3.4a19.55 19.55 0 009.69-3.83 27.8 27.8 0 009.61 3.77v3.57a9.62 9.62 0 01-2.84 6.84 9.38 9.38 0 01-6.84 2.81zm9.3 3.54l-3.36-1.13c-.5-.17-.83-.63-.83-1.16v-1.01a11.06 11.06 0 006-9c.54.01 1.07-.13 1.52-.38v7.64a5.51 5.51 0 01-3.33 5.04zm4.25 10.98a2.42 2.42 0 11-2.42-2.42 2.43 2.43 0 012.42 2.42zm-8.78-27.03c-.4 0-.73.33-.73.73v1.68c0 .4.33.73.73.73s.73-.33.73-.73v-1.68c0-.4-.33-.73-.73-.73zm-3.7 6.96c-.16.12-.51.32-.98.33-.52.02-.92-.2-1.11-.33a.73.73 0 00-1.02.17.73.73 0 00.17 1.02 3.29 3.29 0 003.78 0 .72.72 0 00.17-1.02.72.72 0 00-1.01-.17zm-5.78-6.96c-.4 0-.73.33-.73.73v1.68c0 .4.33.73.73.73.4 0 .73-.33.73-.73v-1.68a.72.72 0 00-.73-.73zm-9.32-1.68v12.69a6.98 6.98 0 002.93 5.66l-3.26 1.1a6.57 6.57 0 00-4.49 6.25v9.51c0 .4.33.73.73.73s.73-.33.73-.73v-9.51c0-2.2 1.4-4.16 3.49-4.86l1.27-.43a8.53 8.53 0 00.13 4.56 3.47 3.47 0 00-2.46 3.31v2.98c0 .74.6 1.34 1.34 1.34h.82c.4 0 .73-.33.73-.73 0-.4-.33-.73-.73-.73h-.69v-2.85a1.99 1.99 0 113.98 0v2.85h-.69c-.4 0-.73.33-.73.73 0 .4.33.73.73.73h.82c.74 0 1.34-.6 1.34-1.34v-2.98a3.47 3.47 0 00-2.94-3.42 7.14 7.14 0 01.07-5.03l5-1.68 5.24 5.24c.43.43 1.16.43 1.59 0l5.19-5.19 4.46 1.5a7.18 7.18 0 01.04 5.16 3.9 3.9 0 101.52.1 8.82 8.82 0 00.16-4.68l1.66.56a5.12 5.12 0 013.49 4.86v9.51c0 .4.33.73.73.73s.73-.33.73-.73v-9.51a6.6 6.6 0 00-4.49-6.25l-3.26-1.1a6.98 6.98 0 002.93-5.66V14.06c0-3.75-1.46-7.29-4.12-9.94A13.89 13.89 0 0019 0c-3.76 0-7.29 1.46-9.94 4.12a13.96 13.96 0 00-4.12 9.94zm1.46 0c0-3.36 1.31-6.53 3.69-8.91S15.63 1.46 19 1.46s6.53 1.31 8.91 3.69a12.51 12.51 0 013.69 8.91 2.95 2.95 0 00-1.44-.38h-.7a26.87 26.87 0 01-9.74-3.74 1.26 1.26 0 00-1.45.07 18.2 18.2 0 01-9.67 3.68h-.75a2.85 2.85 0 00-1.45.37z" fill="#221935"/></svg>