<svg xmlns="http://www.w3.org/2000/svg" width="100" height="100"><circle cx="50" cy="50" r="3.85" fill-rule="evenodd" clip-rule="evenodd" fill="#bebddf"/><path d="M43.06 48.72H0A50.04 50.04 0 0147.76.03v43.28a7.1 7.1 0 00-4.7 5.41zm-3.45-8.83c-3.39 3.39-7.01 5.02-10.86 4.88-3.84-.14-7.59-2.04-11.24-5.69-3.64-3.64-5.52-7.41-5.65-11.3-.12-3.89 1.53-7.55 4.95-10.97a41.9 41.9 0 017.84-5.92l2.91 2.91c-4.02 1.96-6.85 3.75-8.47 5.37-2.37 2.37-3.4 5.01-3.1 7.91.3 2.9 1.92 5.82 4.84 8.74 2.78 2.78 5.67 4.29 8.67 4.51 3 .22 5.69-.87 8.1-3.27 2.07-2.07 3.65-4.91 4.74-8.55L45 31.17a21.55 21.55 0 01-5.39 8.72z" fill-rule="evenodd" clip-rule="evenodd" fill="#4158ac"/><path d="M100 48.72H56.94a7.08 7.08 0 00-4.69-5.41V.03A50.04 50.04 0 01100 48.72zm-44.37-15.6l21.84-21.84 3.1 3.1L61.05 33.9l9.83 9.83-2.32 2.32-12.93-12.93z" fill-rule="evenodd" clip-rule="evenodd" fill="#5b69b3"/><path d="M99.92 53.21a50.05 50.05 0 01-47.67 46.76V56.69a7.08 7.08 0 004.04-3.48h43.63zM86.64 74.32l-8.43-3.67-9.25 9.25 3.65 8.46-2.88 2.88-13.18-30.51 3.07-3.07L90 70.97l-3.36 3.35zm-11.63-5.07l-13.14-5.7 5.68 13.15 7.46-7.45z" fill-rule="evenodd" clip-rule="evenodd" fill="#7277bb"/><path d="M43.72 53.21a7.08 7.08 0 004.04 3.48v43.28A50.06 50.06 0 01.08 53.21h43.64zM18.4 80.29l21.84-21.84 3.1 3.1L21.5 83.39l-3.1-3.1z" fill-rule="evenodd" clip-rule="evenodd" fill="#9798cc"/></svg>